<?xml version="1.0" encoding="utf-8" standalone="no"?>
<!DOCTYPE svg PUBLIC "-//W3C//DTD SVG 1.1//EN"
  "http://www.w3.org/Graphics/SVG/1.1/DTD/svg11.dtd">
<svg xmlns:xlink="http://www.w3.org/1999/xlink" width="229.68pt" height="172.08pt" viewBox="0 0 229.68 172.08" xmlns="http://www.w3.org/2000/svg" version="1.1">
 <metadata>
  <rdf:RDF xmlns:dc="http://purl.org/dc/elements/1.1/" xmlns:cc="http://creativecommons.org/ns#" xmlns:rdf="http://www.w3.org/1999/02/22-rdf-syntax-ns#">
   <cc:Work>
    <dc:type rdf:resource="http://purl.org/dc/dcmitype/StillImage"/>
    <dc:date>2023-11-21T15:47:04.178074</dc:date>
    <dc:format>image/svg+xml</dc:format>
    <dc:creator>
     <cc:Agent>
      <dc:title>Matplotlib v3.5.3, https://matplotlib.org/</dc:title>
     </cc:Agent>
    </dc:creator>
   </cc:Work>
  </rdf:RDF>
 </metadata>
 <defs>
  <style type="text/css">*{stroke-linejoin: round; stroke-linecap: butt}</style>
 </defs>
 <g id="figure_1">
  <g id="patch_1">
   <path d="M 0 172.08 
L 229.68 172.08 
L 229.68 0 
L 0 0 
z
" style="fill: #ffffff"/>
  </g>
  <g id="axes_1">
   <g id="patch_2">
    <path d="M 27.658283 147.776553 
L 226.08 147.776553 
L 226.08 3.6 
L 27.658283 3.6 
z
" style="fill: #ffffff"/>
   </g>
   <g id="PolyCollection_1">
    <path d="M 36.677452 141.223073 
L 36.677452 104.255894 
L 40.358745 104.255894 
L 44.040039 104.255894 
L 47.721332 104.255894 
L 51.402626 104.255894 
L 55.083919 104.255894 
L 58.765213 104.255894 
L 62.446506 104.255894 
L 66.1278 104.255894 
L 69.809093 104.255894 
L 73.490386 104.255894 
L 77.17168 104.255894 
L 80.852973 104.255894 
L 84.534267 104.255894 
L 88.21556 104.255894 
L 91.896854 104.255894 
L 95.578147 104.255894 
L 99.259441 104.255894 
L 102.940734 104.255894 
L 106.622028 104.255894 
L 110.303321 104.255894 
L 113.984614 104.255894 
L 117.665908 104.255894 
L 121.347201 104.255894 
L 125.028495 104.255894 
L 128.709788 104.255894 
L 132.391082 104.255894 
L 136.072375 104.255894 
L 139.753669 104.255894 
L 143.434962 104.255894 
L 147.116255 104.255894 
L 150.797549 104.255894 
L 154.478842 104.255894 
L 158.160136 104.255894 
L 161.841429 104.255894 
L 165.522723 104.255894 
L 169.204016 104.255894 
L 172.88531 104.255894 
L 176.566603 104.255894 
L 180.247897 104.255894 
L 183.92919 104.255894 
L 187.610483 104.255894 
L 191.291777 104.255894 
L 194.97307 104.255894 
L 198.654364 104.255894 
L 202.335657 104.255894 
L 206.016951 104.255894 
L 209.698244 104.255894 
L 213.379538 104.255894 
L 217.060831 104.255894 
L 217.060831 141.223073 
L 217.060831 141.223073 
L 213.379538 141.223073 
L 209.698244 141.223073 
L 206.016951 141.223073 
L 202.335657 141.223073 
L 198.654364 141.223073 
L 194.97307 141.223073 
L 191.291777 141.223073 
L 187.610483 141.223073 
L 183.92919 141.223073 
L 180.247897 141.223073 
L 176.566603 141.223073 
L 172.88531 141.223073 
L 169.204016 141.223073 
L 165.522723 141.223073 
L 161.841429 141.223073 
L 158.160136 141.223073 
L 154.478842 141.223073 
L 150.797549 141.223073 
L 147.116255 141.223073 
L 143.434962 141.223073 
L 139.753669 141.223073 
L 136.072375 141.223073 
L 132.391082 141.223073 
L 128.709788 141.223073 
L 125.028495 141.223073 
L 121.347201 141.223073 
L 117.665908 141.223073 
L 113.984614 141.223073 
L 110.303321 141.223073 
L 106.622028 141.223073 
L 102.940734 141.223073 
L 99.259441 141.223073 
L 95.578147 141.223073 
L 91.896854 141.223073 
L 88.21556 141.223073 
L 84.534267 141.223073 
L 80.852973 141.223073 
L 77.17168 141.223073 
L 73.490386 141.223073 
L 69.809093 141.223073 
L 66.1278 141.223073 
L 62.446506 141.223073 
L 58.765213 141.223073 
L 55.083919 141.223073 
L 51.402626 141.223073 
L 47.721332 141.223073 
L 44.040039 141.223073 
L 40.358745 141.223073 
L 36.677452 141.223073 
z
" clip-path="url(#p175e0cd48a)" style="fill: #0c5da5; fill-opacity: 0.5"/>
   </g>
   <g id="matplotlib.axis_1">
    <g id="xtick_1">
     <g id="line2d_1">
      <path d="M 50.039184 147.776553 
L 50.039184 3.6 
" clip-path="url(#p175e0cd48a)" style="fill: none; stroke: #b0b0b0; stroke-width: 0.5; stroke-linecap: square"/>
     </g>
     <g id="line2d_2">
      <defs>
       <path id="m8dfc650d83" d="M 0 0 
L 0 -3 
" style="stroke: #000000; stroke-width: 0.5"/>
      </defs>
      <g>
       <use xlink:href="#m8dfc650d83" x="50.039184" y="147.776553" style="stroke: #000000; stroke-width: 0.5"/>
      </g>
     </g>
     <g id="line2d_3">
      <defs>
       <path id="m980493fe0d" d="M 0 0 
L 0 3 
" style="stroke: #000000; stroke-width: 0.5"/>
      </defs>
      <g>
       <use xlink:href="#m980493fe0d" x="50.039184" y="3.6" style="stroke: #000000; stroke-width: 0.5"/>
      </g>
     </g>
     <g id="text_1">
      <!-- $\mathdefault{0}$ -->
      <g transform="translate(48.100478 156.245377)scale(0.07 -0.07)">
       <defs>
        <path id="NimbusSanL-Regu-30" d="M 1760 4544 
C 1338 4544 954 4360 717 4046 
C 422 3651 275 3044 275 2208 
C 275 683 787 -128 1760 -128 
C 2720 -128 3245 683 3245 2170 
C 3245 3050 3104 3638 2803 4046 
C 2566 4366 2189 4544 1760 4544 
z
M 1760 4044 
C 2368 4044 2669 3432 2669 2221 
C 2669 939 2374 340 1747 340 
C 1152 340 851 965 851 2202 
C 851 3438 1152 4044 1760 4044 
z
" transform="scale(0.015625)"/>
       </defs>
       <use xlink:href="#NimbusSanL-Regu-30" transform="scale(0.996264)"/>
      </g>
     </g>
    </g>
    <g id="xtick_2">
     <g id="line2d_4">
      <path d="M 83.443513 147.776553 
L 83.443513 3.6 
" clip-path="url(#p175e0cd48a)" style="fill: none; stroke: #b0b0b0; stroke-width: 0.5; stroke-linecap: square"/>
     </g>
     <g id="line2d_5">
      <g>
       <use xlink:href="#m8dfc650d83" x="83.443513" y="147.776553" style="stroke: #000000; stroke-width: 0.5"/>
      </g>
     </g>
     <g id="line2d_6">
      <g>
       <use xlink:href="#m980493fe0d" x="83.443513" y="3.6" style="stroke: #000000; stroke-width: 0.5"/>
      </g>
     </g>
     <g id="text_2">
      <!-- $\mathdefault{5}$ -->
      <g transform="translate(81.504807 156.245377)scale(0.07 -0.07)">
       <defs>
        <path id="NimbusSanL-Regu-35" d="M 3046 4544 
L 704 4544 
L 365 2086 
L 883 2086 
C 1146 2399 1363 2508 1715 2508 
C 2323 2508 2707 2092 2707 1421 
C 2707 768 2330 372 1715 372 
C 1222 372 922 621 787 1133 
L 224 1133 
C 301 762 365 582 499 415 
C 755 70 1216 -128 1728 -128 
C 2643 -128 3283 537 3283 1497 
C 3283 2394 2688 3008 1818 3008 
C 1498 3008 1242 2925 979 2732 
L 1158 3987 
L 3046 3987 
L 3046 4544 
z
" transform="scale(0.015625)"/>
       </defs>
       <use xlink:href="#NimbusSanL-Regu-35" transform="scale(0.996264)"/>
      </g>
     </g>
    </g>
    <g id="xtick_3">
     <g id="line2d_7">
      <path d="M 116.847843 147.776553 
L 116.847843 3.6 
" clip-path="url(#p175e0cd48a)" style="fill: none; stroke: #b0b0b0; stroke-width: 0.5; stroke-linecap: square"/>
     </g>
     <g id="line2d_8">
      <g>
       <use xlink:href="#m8dfc650d83" x="116.847843" y="147.776553" style="stroke: #000000; stroke-width: 0.5"/>
      </g>
     </g>
     <g id="line2d_9">
      <g>
       <use xlink:href="#m980493fe0d" x="116.847843" y="3.6" style="stroke: #000000; stroke-width: 0.5"/>
      </g>
     </g>
     <g id="text_3">
      <!-- $\mathdefault{10}$ -->
      <g transform="translate(112.97043 156.245377)scale(0.07 -0.07)">
       <defs>
        <path id="NimbusSanL-Regu-31" d="M 1658 3238 
L 1658 0 
L 2221 0 
L 2221 4545 
L 1850 4545 
C 1651 3847 1523 3751 653 3642 
L 653 3238 
L 1658 3238 
z
" transform="scale(0.015625)"/>
       </defs>
       <use xlink:href="#NimbusSanL-Regu-31" transform="scale(0.996264)"/>
       <use xlink:href="#NimbusSanL-Regu-30" transform="translate(55.391677 0)scale(0.996264)"/>
      </g>
     </g>
    </g>
    <g id="xtick_4">
     <g id="line2d_10">
      <path d="M 150.252172 147.776553 
L 150.252172 3.6 
" clip-path="url(#p175e0cd48a)" style="fill: none; stroke: #b0b0b0; stroke-width: 0.5; stroke-linecap: square"/>
     </g>
     <g id="line2d_11">
      <g>
       <use xlink:href="#m8dfc650d83" x="150.252172" y="147.776553" style="stroke: #000000; stroke-width: 0.5"/>
      </g>
     </g>
     <g id="line2d_12">
      <g>
       <use xlink:href="#m980493fe0d" x="150.252172" y="3.6" style="stroke: #000000; stroke-width: 0.5"/>
      </g>
     </g>
     <g id="text_4">
      <!-- $\mathdefault{15}$ -->
      <g transform="translate(146.37476 156.245377)scale(0.07 -0.07)">
       <use xlink:href="#NimbusSanL-Regu-31" transform="scale(0.996264)"/>
       <use xlink:href="#NimbusSanL-Regu-35" transform="translate(55.391677 0)scale(0.996264)"/>
      </g>
     </g>
    </g>
    <g id="xtick_5">
     <g id="line2d_13">
      <path d="M 183.656502 147.776553 
L 183.656502 3.6 
" clip-path="url(#p175e0cd48a)" style="fill: none; stroke: #b0b0b0; stroke-width: 0.5; stroke-linecap: square"/>
     </g>
     <g id="line2d_14">
      <g>
       <use xlink:href="#m8dfc650d83" x="183.656502" y="147.776553" style="stroke: #000000; stroke-width: 0.5"/>
      </g>
     </g>
     <g id="line2d_15">
      <g>
       <use xlink:href="#m980493fe0d" x="183.656502" y="3.6" style="stroke: #000000; stroke-width: 0.5"/>
      </g>
     </g>
     <g id="text_5">
      <!-- $\mathdefault{20}$ -->
      <g transform="translate(179.779089 156.245377)scale(0.07 -0.07)">
       <defs>
        <path id="NimbusSanL-Regu-32" d="M 3238 558 
L 851 558 
C 909 930 1114 1167 1670 1494 
L 2310 1840 
C 2944 2186 3270 2653 3270 3211 
C 3270 3589 3117 3942 2848 4185 
C 2579 4429 2246 4544 1818 4544 
C 1242 4544 813 4339 563 3955 
C 403 3711 333 3429 320 2967 
L 883 2967 
C 902 3275 941 3461 1018 3608 
C 1165 3884 1459 4051 1798 4051 
C 2310 4051 2694 3685 2694 3198 
C 2694 2839 2483 2531 2080 2301 
L 1491 1968 
C 544 1430 269 1000 218 0 
L 3238 0 
L 3238 558 
z
" transform="scale(0.015625)"/>
       </defs>
       <use xlink:href="#NimbusSanL-Regu-32" transform="scale(0.996264)"/>
       <use xlink:href="#NimbusSanL-Regu-30" transform="translate(55.391677 0)scale(0.996264)"/>
      </g>
     </g>
    </g>
    <g id="xtick_6">
     <g id="line2d_16">
      <path d="M 217.060831 147.776553 
L 217.060831 3.6 
" clip-path="url(#p175e0cd48a)" style="fill: none; stroke: #b0b0b0; stroke-width: 0.5; stroke-linecap: square"/>
     </g>
     <g id="line2d_17">
      <g>
       <use xlink:href="#m8dfc650d83" x="217.060831" y="147.776553" style="stroke: #000000; stroke-width: 0.5"/>
      </g>
     </g>
     <g id="line2d_18">
      <g>
       <use xlink:href="#m980493fe0d" x="217.060831" y="3.6" style="stroke: #000000; stroke-width: 0.5"/>
      </g>
     </g>
     <g id="text_6">
      <!-- $\mathdefault{25}$ -->
      <g transform="translate(213.183419 156.245377)scale(0.07 -0.07)">
       <use xlink:href="#NimbusSanL-Regu-32" transform="scale(0.996264)"/>
       <use xlink:href="#NimbusSanL-Regu-35" transform="translate(55.391677 0)scale(0.996264)"/>
      </g>
     </g>
    </g>
    <g id="xtick_7">
     <g id="line2d_19">
      <defs>
       <path id="mac06459b3c" d="M 0 0 
L 0 -1.5 
" style="stroke: #000000; stroke-width: 0.5"/>
      </defs>
      <g>
       <use xlink:href="#mac06459b3c" x="29.996586" y="147.776553" style="stroke: #000000; stroke-width: 0.5"/>
      </g>
     </g>
     <g id="line2d_20">
      <defs>
       <path id="m2da4783716" d="M 0 0 
L 0 1.5 
" style="stroke: #000000; stroke-width: 0.5"/>
      </defs>
      <g>
       <use xlink:href="#m2da4783716" x="29.996586" y="3.6" style="stroke: #000000; stroke-width: 0.5"/>
      </g>
     </g>
    </g>
    <g id="xtick_8">
     <g id="line2d_21">
      <g>
       <use xlink:href="#mac06459b3c" x="36.677452" y="147.776553" style="stroke: #000000; stroke-width: 0.5"/>
      </g>
     </g>
     <g id="line2d_22">
      <g>
       <use xlink:href="#m2da4783716" x="36.677452" y="3.6" style="stroke: #000000; stroke-width: 0.5"/>
      </g>
     </g>
    </g>
    <g id="xtick_9">
     <g id="line2d_23">
      <g>
       <use xlink:href="#mac06459b3c" x="43.358318" y="147.776553" style="stroke: #000000; stroke-width: 0.5"/>
      </g>
     </g>
     <g id="line2d_24">
      <g>
       <use xlink:href="#m2da4783716" x="43.358318" y="3.6" style="stroke: #000000; stroke-width: 0.5"/>
      </g>
     </g>
    </g>
    <g id="xtick_10">
     <g id="line2d_25">
      <g>
       <use xlink:href="#mac06459b3c" x="56.72005" y="147.776553" style="stroke: #000000; stroke-width: 0.5"/>
      </g>
     </g>
     <g id="line2d_26">
      <g>
       <use xlink:href="#m2da4783716" x="56.72005" y="3.6" style="stroke: #000000; stroke-width: 0.5"/>
      </g>
     </g>
    </g>
    <g id="xtick_11">
     <g id="line2d_27">
      <g>
       <use xlink:href="#mac06459b3c" x="63.400916" y="147.776553" style="stroke: #000000; stroke-width: 0.5"/>
      </g>
     </g>
     <g id="line2d_28">
      <g>
       <use xlink:href="#m2da4783716" x="63.400916" y="3.6" style="stroke: #000000; stroke-width: 0.5"/>
      </g>
     </g>
    </g>
    <g id="xtick_12">
     <g id="line2d_29">
      <g>
       <use xlink:href="#mac06459b3c" x="70.081781" y="147.776553" style="stroke: #000000; stroke-width: 0.5"/>
      </g>
     </g>
     <g id="line2d_30">
      <g>
       <use xlink:href="#m2da4783716" x="70.081781" y="3.6" style="stroke: #000000; stroke-width: 0.5"/>
      </g>
     </g>
    </g>
    <g id="xtick_13">
     <g id="line2d_31">
      <g>
       <use xlink:href="#mac06459b3c" x="76.762647" y="147.776553" style="stroke: #000000; stroke-width: 0.5"/>
      </g>
     </g>
     <g id="line2d_32">
      <g>
       <use xlink:href="#m2da4783716" x="76.762647" y="3.6" style="stroke: #000000; stroke-width: 0.5"/>
      </g>
     </g>
    </g>
    <g id="xtick_14">
     <g id="line2d_33">
      <g>
       <use xlink:href="#mac06459b3c" x="90.124379" y="147.776553" style="stroke: #000000; stroke-width: 0.5"/>
      </g>
     </g>
     <g id="line2d_34">
      <g>
       <use xlink:href="#m2da4783716" x="90.124379" y="3.6" style="stroke: #000000; stroke-width: 0.5"/>
      </g>
     </g>
    </g>
    <g id="xtick_15">
     <g id="line2d_35">
      <g>
       <use xlink:href="#mac06459b3c" x="96.805245" y="147.776553" style="stroke: #000000; stroke-width: 0.5"/>
      </g>
     </g>
     <g id="line2d_36">
      <g>
       <use xlink:href="#m2da4783716" x="96.805245" y="3.6" style="stroke: #000000; stroke-width: 0.5"/>
      </g>
     </g>
    </g>
    <g id="xtick_16">
     <g id="line2d_37">
      <g>
       <use xlink:href="#mac06459b3c" x="103.486111" y="147.776553" style="stroke: #000000; stroke-width: 0.5"/>
      </g>
     </g>
     <g id="line2d_38">
      <g>
       <use xlink:href="#m2da4783716" x="103.486111" y="3.6" style="stroke: #000000; stroke-width: 0.5"/>
      </g>
     </g>
    </g>
    <g id="xtick_17">
     <g id="line2d_39">
      <g>
       <use xlink:href="#mac06459b3c" x="110.166977" y="147.776553" style="stroke: #000000; stroke-width: 0.5"/>
      </g>
     </g>
     <g id="line2d_40">
      <g>
       <use xlink:href="#m2da4783716" x="110.166977" y="3.6" style="stroke: #000000; stroke-width: 0.5"/>
      </g>
     </g>
    </g>
    <g id="xtick_18">
     <g id="line2d_41">
      <g>
       <use xlink:href="#mac06459b3c" x="123.528709" y="147.776553" style="stroke: #000000; stroke-width: 0.5"/>
      </g>
     </g>
     <g id="line2d_42">
      <g>
       <use xlink:href="#m2da4783716" x="123.528709" y="3.6" style="stroke: #000000; stroke-width: 0.5"/>
      </g>
     </g>
    </g>
    <g id="xtick_19">
     <g id="line2d_43">
      <g>
       <use xlink:href="#mac06459b3c" x="130.209574" y="147.776553" style="stroke: #000000; stroke-width: 0.5"/>
      </g>
     </g>
     <g id="line2d_44">
      <g>
       <use xlink:href="#m2da4783716" x="130.209574" y="3.6" style="stroke: #000000; stroke-width: 0.5"/>
      </g>
     </g>
    </g>
    <g id="xtick_20">
     <g id="line2d_45">
      <g>
       <use xlink:href="#mac06459b3c" x="136.89044" y="147.776553" style="stroke: #000000; stroke-width: 0.5"/>
      </g>
     </g>
     <g id="line2d_46">
      <g>
       <use xlink:href="#m2da4783716" x="136.89044" y="3.6" style="stroke: #000000; stroke-width: 0.5"/>
      </g>
     </g>
    </g>
    <g id="xtick_21">
     <g id="line2d_47">
      <g>
       <use xlink:href="#mac06459b3c" x="143.571306" y="147.776553" style="stroke: #000000; stroke-width: 0.5"/>
      </g>
     </g>
     <g id="line2d_48">
      <g>
       <use xlink:href="#m2da4783716" x="143.571306" y="3.6" style="stroke: #000000; stroke-width: 0.5"/>
      </g>
     </g>
    </g>
    <g id="xtick_22">
     <g id="line2d_49">
      <g>
       <use xlink:href="#mac06459b3c" x="156.933038" y="147.776553" style="stroke: #000000; stroke-width: 0.5"/>
      </g>
     </g>
     <g id="line2d_50">
      <g>
       <use xlink:href="#m2da4783716" x="156.933038" y="3.6" style="stroke: #000000; stroke-width: 0.5"/>
      </g>
     </g>
    </g>
    <g id="xtick_23">
     <g id="line2d_51">
      <g>
       <use xlink:href="#mac06459b3c" x="163.613904" y="147.776553" style="stroke: #000000; stroke-width: 0.5"/>
      </g>
     </g>
     <g id="line2d_52">
      <g>
       <use xlink:href="#m2da4783716" x="163.613904" y="3.6" style="stroke: #000000; stroke-width: 0.5"/>
      </g>
     </g>
    </g>
    <g id="xtick_24">
     <g id="line2d_53">
      <g>
       <use xlink:href="#mac06459b3c" x="170.29477" y="147.776553" style="stroke: #000000; stroke-width: 0.5"/>
      </g>
     </g>
     <g id="line2d_54">
      <g>
       <use xlink:href="#m2da4783716" x="170.29477" y="3.6" style="stroke: #000000; stroke-width: 0.5"/>
      </g>
     </g>
    </g>
    <g id="xtick_25">
     <g id="line2d_55">
      <g>
       <use xlink:href="#mac06459b3c" x="176.975636" y="147.776553" style="stroke: #000000; stroke-width: 0.5"/>
      </g>
     </g>
     <g id="line2d_56">
      <g>
       <use xlink:href="#m2da4783716" x="176.975636" y="3.6" style="stroke: #000000; stroke-width: 0.5"/>
      </g>
     </g>
    </g>
    <g id="xtick_26">
     <g id="line2d_57">
      <g>
       <use xlink:href="#mac06459b3c" x="190.337367" y="147.776553" style="stroke: #000000; stroke-width: 0.5"/>
      </g>
     </g>
     <g id="line2d_58">
      <g>
       <use xlink:href="#m2da4783716" x="190.337367" y="3.6" style="stroke: #000000; stroke-width: 0.5"/>
      </g>
     </g>
    </g>
    <g id="xtick_27">
     <g id="line2d_59">
      <g>
       <use xlink:href="#mac06459b3c" x="197.018233" y="147.776553" style="stroke: #000000; stroke-width: 0.5"/>
      </g>
     </g>
     <g id="line2d_60">
      <g>
       <use xlink:href="#m2da4783716" x="197.018233" y="3.6" style="stroke: #000000; stroke-width: 0.5"/>
      </g>
     </g>
    </g>
    <g id="xtick_28">
     <g id="line2d_61">
      <g>
       <use xlink:href="#mac06459b3c" x="203.699099" y="147.776553" style="stroke: #000000; stroke-width: 0.5"/>
      </g>
     </g>
     <g id="line2d_62">
      <g>
       <use xlink:href="#m2da4783716" x="203.699099" y="3.6" style="stroke: #000000; stroke-width: 0.5"/>
      </g>
     </g>
    </g>
    <g id="xtick_29">
     <g id="line2d_63">
      <g>
       <use xlink:href="#mac06459b3c" x="210.379965" y="147.776553" style="stroke: #000000; stroke-width: 0.5"/>
      </g>
     </g>
     <g id="line2d_64">
      <g>
       <use xlink:href="#m2da4783716" x="210.379965" y="3.6" style="stroke: #000000; stroke-width: 0.5"/>
      </g>
     </g>
    </g>
    <g id="xtick_30">
     <g id="line2d_65">
      <g>
       <use xlink:href="#mac06459b3c" x="223.741697" y="147.776553" style="stroke: #000000; stroke-width: 0.5"/>
      </g>
     </g>
     <g id="line2d_66">
      <g>
       <use xlink:href="#m2da4783716" x="223.741697" y="3.6" style="stroke: #000000; stroke-width: 0.5"/>
      </g>
     </g>
    </g>
    <g id="text_7">
     <!-- T [$^\circ$C] -->
     <g transform="translate(117.230626 166.994619)scale(0.07 -0.07)">
      <defs>
       <path id="NimbusSanL-Regu-54" d="M 2266 4146 
L 3795 4146 
L 3795 4672 
L 134 4672 
L 134 4146 
L 1670 4146 
L 1670 -14 
L 2266 -14 
L 2266 4146 
z
" transform="scale(0.015625)"/>
       <path id="NimbusSanL-Regu-5b" d="M 1600 4672 
L 410 4672 
L 410 -1357 
L 1600 -1357 
L 1600 -896 
L 941 -896 
L 941 4210 
L 1600 4210 
L 1600 4672 
z
" transform="scale(0.015625)"/>
       <path id="CMSY10-e" d="M 2842 1600 
C 2842 2277 2272 2828 1600 2828 
C 909 2828 352 2264 352 1600 
C 352 930 909 372 1600 372 
C 2272 372 2842 923 2842 1600 
z
M 1600 628 
C 1043 628 608 1070 608 1600 
C 608 2130 1050 2572 1600 2572 
C 2131 2572 2586 2142 2586 1600 
C 2586 1058 2131 628 1600 628 
z
" transform="scale(0.015625)"/>
       <path id="NimbusSanL-Regu-43" d="M 4237 3229 
C 4051 4252 3462 4750 2438 4750 
C 1811 4750 1306 4552 960 4168 
C 538 3709 307 3045 307 2291 
C 307 1525 544 868 986 414 
C 1344 44 1805 -128 2413 -128 
C 3552 -128 4192 485 4333 1717 
L 3718 1717 
C 3667 1399 3603 1182 3507 997 
C 3315 614 2918 397 2419 397 
C 1491 397 902 1137 902 2298 
C 902 3491 1466 4224 2368 4224 
C 2746 4224 3098 4110 3290 3930 
C 3462 3771 3558 3573 3629 3229 
L 4237 3229 
z
" transform="scale(0.015625)"/>
       <path id="NimbusSanL-Regu-5d" d="M 147 -1357 
L 1338 -1357 
L 1338 4672 
L 147 4672 
L 147 4210 
L 806 4210 
L 806 -896 
L 147 -896 
L 147 -1357 
z
" transform="scale(0.015625)"/>
      </defs>
      <use xlink:href="#NimbusSanL-Regu-54" transform="scale(0.996264)"/>
      <use xlink:href="#NimbusSanL-Regu-5b" transform="translate(88.5668 0)scale(0.996264)"/>
      <use xlink:href="#CMSY10-e" transform="translate(116.26197 36.153639)scale(0.697382)"/>
      <use xlink:href="#NimbusSanL-Regu-43" transform="translate(151.629312 0)scale(0.996264)"/>
      <use xlink:href="#NimbusSanL-Regu-5d" transform="translate(223.559297 0)scale(0.996264)"/>
     </g>
    </g>
   </g>
   <g id="matplotlib.axis_2">
    <g id="ytick_1">
     <g id="line2d_67">
      <path d="M 27.658283 135.623365 
L 226.08 135.623365 
" clip-path="url(#p175e0cd48a)" style="fill: none; stroke: #b0b0b0; stroke-width: 0.5; stroke-linecap: square"/>
     </g>
     <g id="line2d_68">
      <defs>
       <path id="m680d1c0f31" d="M 0 0 
L 3 0 
" style="stroke: #000000; stroke-width: 0.5"/>
      </defs>
      <g>
       <use xlink:href="#m680d1c0f31" x="27.658283" y="135.623365" style="stroke: #000000; stroke-width: 0.5"/>
      </g>
     </g>
     <g id="line2d_69">
      <defs>
       <path id="md531fb9249" d="M 0 0 
L -3 0 
" style="stroke: #000000; stroke-width: 0.5"/>
      </defs>
      <g>
       <use xlink:href="#md531fb9249" x="226.08" y="135.623365" style="stroke: #000000; stroke-width: 0.5"/>
      </g>
     </g>
     <g id="text_8">
      <!-- $\mathdefault{−1}$ -->
      <g transform="translate(14.054206 138.107777)scale(0.07 -0.07)">
       <defs>
        <path id="CMSY10-0" d="M 4218 1472 
C 4326 1472 4442 1472 4442 1600 
C 4442 1728 4326 1728 4218 1728 
L 755 1728 
C 646 1728 531 1728 531 1600 
C 531 1472 646 1472 755 1472 
L 4218 1472 
z
" transform="scale(0.015625)"/>
       </defs>
       <use xlink:href="#CMSY10-0" transform="scale(0.996264)"/>
       <use xlink:href="#NimbusSanL-Regu-31" transform="translate(77.487468 0)scale(0.996264)"/>
      </g>
     </g>
    </g>
    <g id="ytick_2">
     <g id="line2d_70">
      <path d="M 27.658283 104.255894 
L 226.08 104.255894 
" clip-path="url(#p175e0cd48a)" style="fill: none; stroke: #b0b0b0; stroke-width: 0.5; stroke-linecap: square"/>
     </g>
     <g id="line2d_71">
      <g>
       <use xlink:href="#m680d1c0f31" x="27.658283" y="104.255894" style="stroke: #000000; stroke-width: 0.5"/>
      </g>
     </g>
     <g id="line2d_72">
      <g>
       <use xlink:href="#md531fb9249" x="226.08" y="104.255894" style="stroke: #000000; stroke-width: 0.5"/>
      </g>
     </g>
     <g id="text_9">
      <!-- $\mathdefault{0}$ -->
      <g transform="translate(20.280871 106.740306)scale(0.07 -0.07)">
       <use xlink:href="#NimbusSanL-Regu-30" transform="scale(0.996264)"/>
      </g>
     </g>
    </g>
    <g id="ytick_3">
     <g id="line2d_73">
      <path d="M 27.658283 72.888422 
L 226.08 72.888422 
" clip-path="url(#p175e0cd48a)" style="fill: none; stroke: #b0b0b0; stroke-width: 0.5; stroke-linecap: square"/>
     </g>
     <g id="line2d_74">
      <g>
       <use xlink:href="#m680d1c0f31" x="27.658283" y="72.888422" style="stroke: #000000; stroke-width: 0.5"/>
      </g>
     </g>
     <g id="line2d_75">
      <g>
       <use xlink:href="#md531fb9249" x="226.08" y="72.888422" style="stroke: #000000; stroke-width: 0.5"/>
      </g>
     </g>
     <g id="text_10">
      <!-- $\mathdefault{1}$ -->
      <g transform="translate(20.280871 75.372834)scale(0.07 -0.07)">
       <use xlink:href="#NimbusSanL-Regu-31" transform="scale(0.996264)"/>
      </g>
     </g>
    </g>
    <g id="ytick_4">
     <g id="line2d_76">
      <path d="M 27.658283 41.520951 
L 226.08 41.520951 
" clip-path="url(#p175e0cd48a)" style="fill: none; stroke: #b0b0b0; stroke-width: 0.5; stroke-linecap: square"/>
     </g>
     <g id="line2d_77">
      <g>
       <use xlink:href="#m680d1c0f31" x="27.658283" y="41.520951" style="stroke: #000000; stroke-width: 0.5"/>
      </g>
     </g>
     <g id="line2d_78">
      <g>
       <use xlink:href="#md531fb9249" x="226.08" y="41.520951" style="stroke: #000000; stroke-width: 0.5"/>
      </g>
     </g>
     <g id="text_11">
      <!-- $\mathdefault{2}$ -->
      <g transform="translate(20.280871 44.005363)scale(0.07 -0.07)">
       <use xlink:href="#NimbusSanL-Regu-32" transform="scale(0.996264)"/>
      </g>
     </g>
    </g>
    <g id="ytick_5">
     <g id="line2d_79">
      <path d="M 27.658283 10.15348 
L 226.08 10.15348 
" clip-path="url(#p175e0cd48a)" style="fill: none; stroke: #b0b0b0; stroke-width: 0.5; stroke-linecap: square"/>
     </g>
     <g id="line2d_80">
      <g>
       <use xlink:href="#m680d1c0f31" x="27.658283" y="10.15348" style="stroke: #000000; stroke-width: 0.5"/>
      </g>
     </g>
     <g id="line2d_81">
      <g>
       <use xlink:href="#md531fb9249" x="226.08" y="10.15348" style="stroke: #000000; stroke-width: 0.5"/>
      </g>
     </g>
     <g id="text_12">
      <!-- $\mathdefault{3}$ -->
      <g transform="translate(20.280871 12.637892)scale(0.07 -0.07)">
       <defs>
        <path id="NimbusSanL-Regu-33" d="M 1414 2112 
L 1485 2112 
L 1722 2112 
C 2342 2112 2662 1830 2662 1284 
C 2662 712 2310 372 1722 372 
C 1107 372 806 681 768 1345 
L 205 1345 
C 230 978 294 740 403 534 
C 634 97 1082 -128 1702 -128 
C 2637 -128 3238 431 3238 1293 
C 3238 1872 3014 2194 2470 2381 
C 2893 2546 3104 2862 3104 3311 
C 3104 4082 2586 4544 1722 4544 
C 806 4544 320 4050 301 3095 
L 864 3095 
C 870 3366 896 3517 966 3655 
C 1094 3900 1376 4051 1728 4051 
C 2227 4051 2528 3760 2528 3287 
C 2528 2971 2413 2781 2163 2681 
C 2010 2618 1811 2592 1414 2592 
L 1414 2112 
z
" transform="scale(0.015625)"/>
       </defs>
       <use xlink:href="#NimbusSanL-Regu-33" transform="scale(0.996264)"/>
      </g>
     </g>
    </g>
    <g id="ytick_6">
     <g id="line2d_82">
      <defs>
       <path id="m17dae471c7" d="M 0 0 
L 1.5 0 
" style="stroke: #000000; stroke-width: 0.5"/>
      </defs>
      <g>
       <use xlink:href="#m17dae471c7" x="27.658283" y="141.896859" style="stroke: #000000; stroke-width: 0.5"/>
      </g>
     </g>
     <g id="line2d_83">
      <defs>
       <path id="m532ea9a581" d="M 0 0 
L -1.5 0 
" style="stroke: #000000; stroke-width: 0.5"/>
      </defs>
      <g>
       <use xlink:href="#m532ea9a581" x="226.08" y="141.896859" style="stroke: #000000; stroke-width: 0.5"/>
      </g>
     </g>
    </g>
    <g id="ytick_7">
     <g id="line2d_84">
      <g>
       <use xlink:href="#m17dae471c7" x="27.658283" y="129.349871" style="stroke: #000000; stroke-width: 0.5"/>
      </g>
     </g>
     <g id="line2d_85">
      <g>
       <use xlink:href="#m532ea9a581" x="226.08" y="129.349871" style="stroke: #000000; stroke-width: 0.5"/>
      </g>
     </g>
    </g>
    <g id="ytick_8">
     <g id="line2d_86">
      <g>
       <use xlink:href="#m17dae471c7" x="27.658283" y="123.076376" style="stroke: #000000; stroke-width: 0.5"/>
      </g>
     </g>
     <g id="line2d_87">
      <g>
       <use xlink:href="#m532ea9a581" x="226.08" y="123.076376" style="stroke: #000000; stroke-width: 0.5"/>
      </g>
     </g>
    </g>
    <g id="ytick_9">
     <g id="line2d_88">
      <g>
       <use xlink:href="#m17dae471c7" x="27.658283" y="116.802882" style="stroke: #000000; stroke-width: 0.5"/>
      </g>
     </g>
     <g id="line2d_89">
      <g>
       <use xlink:href="#m532ea9a581" x="226.08" y="116.802882" style="stroke: #000000; stroke-width: 0.5"/>
      </g>
     </g>
    </g>
    <g id="ytick_10">
     <g id="line2d_90">
      <g>
       <use xlink:href="#m17dae471c7" x="27.658283" y="110.529388" style="stroke: #000000; stroke-width: 0.5"/>
      </g>
     </g>
     <g id="line2d_91">
      <g>
       <use xlink:href="#m532ea9a581" x="226.08" y="110.529388" style="stroke: #000000; stroke-width: 0.5"/>
      </g>
     </g>
    </g>
    <g id="ytick_11">
     <g id="line2d_92">
      <g>
       <use xlink:href="#m17dae471c7" x="27.658283" y="97.982399" style="stroke: #000000; stroke-width: 0.5"/>
      </g>
     </g>
     <g id="line2d_93">
      <g>
       <use xlink:href="#m532ea9a581" x="226.08" y="97.982399" style="stroke: #000000; stroke-width: 0.5"/>
      </g>
     </g>
    </g>
    <g id="ytick_12">
     <g id="line2d_94">
      <g>
       <use xlink:href="#m17dae471c7" x="27.658283" y="91.708905" style="stroke: #000000; stroke-width: 0.5"/>
      </g>
     </g>
     <g id="line2d_95">
      <g>
       <use xlink:href="#m532ea9a581" x="226.08" y="91.708905" style="stroke: #000000; stroke-width: 0.5"/>
      </g>
     </g>
    </g>
    <g id="ytick_13">
     <g id="line2d_96">
      <g>
       <use xlink:href="#m17dae471c7" x="27.658283" y="85.435411" style="stroke: #000000; stroke-width: 0.5"/>
      </g>
     </g>
     <g id="line2d_97">
      <g>
       <use xlink:href="#m532ea9a581" x="226.08" y="85.435411" style="stroke: #000000; stroke-width: 0.5"/>
      </g>
     </g>
    </g>
    <g id="ytick_14">
     <g id="line2d_98">
      <g>
       <use xlink:href="#m17dae471c7" x="27.658283" y="79.161917" style="stroke: #000000; stroke-width: 0.5"/>
      </g>
     </g>
     <g id="line2d_99">
      <g>
       <use xlink:href="#m532ea9a581" x="226.08" y="79.161917" style="stroke: #000000; stroke-width: 0.5"/>
      </g>
     </g>
    </g>
    <g id="ytick_15">
     <g id="line2d_100">
      <g>
       <use xlink:href="#m17dae471c7" x="27.658283" y="66.614928" style="stroke: #000000; stroke-width: 0.5"/>
      </g>
     </g>
     <g id="line2d_101">
      <g>
       <use xlink:href="#m532ea9a581" x="226.08" y="66.614928" style="stroke: #000000; stroke-width: 0.5"/>
      </g>
     </g>
    </g>
    <g id="ytick_16">
     <g id="line2d_102">
      <g>
       <use xlink:href="#m17dae471c7" x="27.658283" y="60.341434" style="stroke: #000000; stroke-width: 0.5"/>
      </g>
     </g>
     <g id="line2d_103">
      <g>
       <use xlink:href="#m532ea9a581" x="226.08" y="60.341434" style="stroke: #000000; stroke-width: 0.5"/>
      </g>
     </g>
    </g>
    <g id="ytick_17">
     <g id="line2d_104">
      <g>
       <use xlink:href="#m17dae471c7" x="27.658283" y="54.067939" style="stroke: #000000; stroke-width: 0.5"/>
      </g>
     </g>
     <g id="line2d_105">
      <g>
       <use xlink:href="#m532ea9a581" x="226.08" y="54.067939" style="stroke: #000000; stroke-width: 0.5"/>
      </g>
     </g>
    </g>
    <g id="ytick_18">
     <g id="line2d_106">
      <g>
       <use xlink:href="#m17dae471c7" x="27.658283" y="47.794445" style="stroke: #000000; stroke-width: 0.5"/>
      </g>
     </g>
     <g id="line2d_107">
      <g>
       <use xlink:href="#m532ea9a581" x="226.08" y="47.794445" style="stroke: #000000; stroke-width: 0.5"/>
      </g>
     </g>
    </g>
    <g id="ytick_19">
     <g id="line2d_108">
      <g>
       <use xlink:href="#m17dae471c7" x="27.658283" y="35.247457" style="stroke: #000000; stroke-width: 0.5"/>
      </g>
     </g>
     <g id="line2d_109">
      <g>
       <use xlink:href="#m532ea9a581" x="226.08" y="35.247457" style="stroke: #000000; stroke-width: 0.5"/>
      </g>
     </g>
    </g>
    <g id="ytick_20">
     <g id="line2d_110">
      <g>
       <use xlink:href="#m17dae471c7" x="27.658283" y="28.973962" style="stroke: #000000; stroke-width: 0.5"/>
      </g>
     </g>
     <g id="line2d_111">
      <g>
       <use xlink:href="#m532ea9a581" x="226.08" y="28.973962" style="stroke: #000000; stroke-width: 0.5"/>
      </g>
     </g>
    </g>
    <g id="ytick_21">
     <g id="line2d_112">
      <g>
       <use xlink:href="#m17dae471c7" x="27.658283" y="22.700468" style="stroke: #000000; stroke-width: 0.5"/>
      </g>
     </g>
     <g id="line2d_113">
      <g>
       <use xlink:href="#m532ea9a581" x="226.08" y="22.700468" style="stroke: #000000; stroke-width: 0.5"/>
      </g>
     </g>
    </g>
    <g id="ytick_22">
     <g id="line2d_114">
      <g>
       <use xlink:href="#m17dae471c7" x="27.658283" y="16.426974" style="stroke: #000000; stroke-width: 0.5"/>
      </g>
     </g>
     <g id="line2d_115">
      <g>
       <use xlink:href="#m532ea9a581" x="226.08" y="16.426974" style="stroke: #000000; stroke-width: 0.5"/>
      </g>
     </g>
    </g>
    <g id="ytick_23">
     <g id="line2d_116">
      <g>
       <use xlink:href="#m17dae471c7" x="27.658283" y="3.879985" style="stroke: #000000; stroke-width: 0.5"/>
      </g>
     </g>
     <g id="line2d_117">
      <g>
       <use xlink:href="#m532ea9a581" x="226.08" y="3.879985" style="stroke: #000000; stroke-width: 0.5"/>
      </g>
     </g>
    </g>
    <g id="text_13">
     <!-- x [mm] -->
     <g transform="translate(8.568824 86.148896)rotate(-90)scale(0.07 -0.07)">
      <defs>
       <path id="NimbusSanL-Regu-78" d="M 1869 1737 
L 2995 3359 
L 2394 3359 
L 1587 2141 
L 781 3359 
L 173 3359 
L 1293 1712 
L 109 0 
L 717 0 
L 1568 1288 
L 2406 0 
L 3027 0 
L 1869 1737 
z
" transform="scale(0.015625)"/>
       <path id="NimbusSanL-Regu-6d" d="M 448 3359 
L 448 0 
L 986 0 
L 986 2109 
C 986 2597 1338 2988 1773 2988 
C 2170 2988 2394 2744 2394 2314 
L 2394 0 
L 2931 0 
L 2931 2109 
C 2931 2597 3283 2988 3718 2988 
C 4109 2988 4339 2738 4339 2314 
L 4339 0 
L 4877 0 
L 4877 2520 
C 4877 3122 4531 3456 3904 3456 
C 3456 3456 3187 3321 2874 2943 
C 2675 3302 2406 3456 1971 3456 
C 1523 3456 1229 3289 941 2885 
L 941 3359 
L 448 3359 
z
" transform="scale(0.015625)"/>
      </defs>
      <use xlink:href="#NimbusSanL-Regu-78" transform="scale(0.996264)"/>
      <use xlink:href="#NimbusSanL-Regu-5b" transform="translate(77.50837 0)scale(0.996264)"/>
      <use xlink:href="#NimbusSanL-Regu-6d" transform="translate(105.20354 0)scale(0.996264)"/>
      <use xlink:href="#NimbusSanL-Regu-6d" transform="translate(188.19197 0)scale(0.996264)"/>
      <use xlink:href="#NimbusSanL-Regu-5d" transform="translate(271.1804 0)scale(0.996264)"/>
     </g>
    </g>
   </g>
   <g id="line2d_118">
    <path d="M 54.240909 104.255894 
L 56.377113 102.335436 
L 58.52412 100.414979 
L 60.681982 98.494521 
L 62.850753 96.574064 
L 65.030485 94.653606 
L 67.221231 92.733149 
L 69.423045 90.812692 
L 71.63598 88.892234 
L 73.860091 86.971777 
L 76.095431 85.051319 
L 78.342055 83.130862 
L 80.600019 81.210404 
L 82.869376 79.289947 
L 85.150183 77.36949 
L 87.442495 75.449032 
L 89.746369 73.528575 
L 92.06186 71.608117 
L 94.389024 69.68766 
L 96.72792 67.767202 
L 99.078603 65.846745 
L 101.441132 63.926288 
L 103.815563 62.00583 
L 106.201956 60.085373 
L 108.600369 58.164915 
L 111.010859 56.244458 
L 113.433487 54.324 
L 115.86831 52.403543 
L 118.31539 50.483086 
L 120.774785 48.562628 
L 123.246557 46.642171 
L 125.730764 44.721713 
L 128.227469 42.801256 
L 130.736733 40.880798 
L 133.258616 38.960341 
L 135.79318 37.039884 
L 138.340489 35.119426 
L 140.900603 33.198969 
L 143.473587 31.278511 
L 146.059502 29.358054 
L 148.658413 27.437597 
L 151.270383 25.517139 
L 153.895476 23.596682 
L 156.533757 21.676224 
L 159.18529 19.755767 
L 161.850141 17.835309 
L 164.528375 15.914852 
L 167.220057 13.994395 
L 169.925255 12.073937 
L 172.644033 10.15348 
" clip-path="url(#p175e0cd48a)" style="fill: none; stroke: #0c5da5; stroke-linecap: square"/>
   </g>
   <g id="line2d_119">
    <path d="M 50.193476 141.223073 
L 50.035991 140.468641 
L 49.878489 139.714209 
L 49.72097 138.959776 
L 49.563435 138.205344 
L 49.405882 137.450912 
L 49.248314 136.69648 
L 49.090728 135.942047 
L 48.933126 135.187615 
L 48.775507 134.433183 
L 48.617872 133.678751 
L 48.460219 132.924318 
L 48.30255 132.169886 
L 48.144865 131.415454 
L 47.987162 130.661022 
L 47.829443 129.90659 
L 47.671708 129.152157 
L 47.513955 128.397725 
L 47.356186 127.643293 
L 47.198401 126.888861 
L 47.040598 126.134428 
L 46.882779 125.379996 
L 46.724943 124.625564 
L 46.567091 123.871132 
L 46.409221 123.116699 
L 46.251335 122.362267 
L 46.093433 121.607835 
L 45.935513 120.853403 
L 45.777577 120.09897 
L 45.619625 119.344538 
L 45.461655 118.590106 
L 45.303669 117.835674 
L 45.145666 117.081242 
L 44.987647 116.326809 
L 44.82961 115.572377 
L 44.671557 114.817945 
L 44.513488 114.063513 
L 44.355401 113.30908 
L 44.197298 112.554648 
L 44.039178 111.800216 
L 43.881042 111.045784 
L 43.722889 110.291351 
L 43.564719 109.536919 
L 43.406532 108.782487 
L 43.248329 108.028055 
L 43.090108 107.273622 
L 42.931872 106.51919 
L 42.773618 105.764758 
L 42.615348 105.010326 
L 42.457061 104.255894 
" clip-path="url(#p175e0cd48a)" style="fill: none; stroke: #ff2c00; stroke-linecap: square"/>
   </g>
   <g id="line2d_120">
    <defs>
     <path id="m7d76fbff7d" d="M 0 1.5 
C 0.397805 1.5 0.77937 1.341951 1.06066 1.06066 
C 1.341951 0.77937 1.5 0.397805 1.5 0 
C 1.5 -0.397805 1.341951 -0.77937 1.06066 -1.06066 
C 0.77937 -1.341951 0.397805 -1.5 0 -1.5 
C -0.397805 -1.5 -0.77937 -1.341951 -1.06066 -1.06066 
C -1.341951 -0.77937 -1.5 -0.397805 -1.5 0 
C -1.5 0.397805 -1.341951 0.77937 -1.06066 1.06066 
C -0.77937 1.341951 -0.397805 1.5 0 1.5 
z
" style="stroke: #ff9500"/>
    </defs>
    <g clip-path="url(#p175e0cd48a)">
     <use xlink:href="#m7d76fbff7d" x="50.193476" y="141.223073" style="fill: #ff9500; stroke: #ff9500"/>
     <use xlink:href="#m7d76fbff7d" x="48.110527" y="131.662596" style="fill: #ff9500; stroke: #ff9500"/>
     <use xlink:href="#m7d76fbff7d" x="46.027578" y="122.375275" style="fill: #ff9500; stroke: #ff9500"/>
     <use xlink:href="#m7d76fbff7d" x="43.713191" y="115.956097" style="fill: #ff9500; stroke: #ff9500"/>
     <use xlink:href="#m7d76fbff7d" x="43.250313" y="110.21981" style="fill: #ff9500; stroke: #ff9500"/>
     <use xlink:href="#m7d76fbff7d" x="42.093119" y="105.439572" style="fill: #ff9500; stroke: #ff9500"/>
     <use xlink:href="#m7d76fbff7d" x="55.05369" y="103.527476" style="fill: #ff9500; stroke: #ff9500"/>
     <use xlink:href="#m7d76fbff7d" x="63.154048" y="96.97172" style="fill: #ff9500; stroke: #ff9500"/>
     <use xlink:href="#m7d76fbff7d" x="69.865772" y="91.098856" style="fill: #ff9500; stroke: #ff9500"/>
     <use xlink:href="#m7d76fbff7d" x="81.437711" y="78.123922" style="fill: #ff9500; stroke: #ff9500"/>
     <use xlink:href="#m7d76fbff7d" x="94.629721" y="62.69058" style="fill: #ff9500; stroke: #ff9500"/>
     <use xlink:href="#m7d76fbff7d" x="105.275904" y="46.710924" style="fill: #ff9500; stroke: #ff9500"/>
     <use xlink:href="#m7d76fbff7d" x="124.253883" y="15.980818" style="fill: #ff9500; stroke: #ff9500"/>
    </g>
   </g>
   <g id="patch_3">
    <path d="M 27.658283 147.776553 
L 27.658283 3.6 
" style="fill: none; stroke: #000000; stroke-width: 0.5; stroke-linejoin: miter; stroke-linecap: square"/>
   </g>
   <g id="patch_4">
    <path d="M 226.08 147.776553 
L 226.08 3.6 
" style="fill: none; stroke: #000000; stroke-width: 0.5; stroke-linejoin: miter; stroke-linecap: square"/>
   </g>
   <g id="patch_5">
    <path d="M 27.658283 147.776553 
L 226.08 147.776553 
" style="fill: none; stroke: #000000; stroke-width: 0.5; stroke-linejoin: miter; stroke-linecap: square"/>
   </g>
   <g id="patch_6">
    <path d="M 27.658283 3.6 
L 226.08 3.6 
" style="fill: none; stroke: #000000; stroke-width: 0.5; stroke-linejoin: miter; stroke-linecap: square"/>
   </g>
   <g id="legend_1">
    <g id="line2d_121">
     <path d="M 138.476467 127.457918 
L 145.476467 127.457918 
L 152.476467 127.457918 
" style="fill: none; stroke: #0c5da5; stroke-linecap: square"/>
    </g>
    <g id="text_14">
     <!-- NET -->
     <g transform="translate(158.076467 129.907918)scale(0.07 -0.07)">
      <defs>
       <path id="NimbusSanL-Regu-4e" d="M 4134 4672 
L 3571 4672 
L 3571 851 
L 1133 4672 
L 486 4672 
L 486 -2 
L 1050 -2 
L 1050 3787 
L 3462 -2 
L 4134 -2 
L 4134 4672 
z
" transform="scale(0.015625)"/>
       <path id="NimbusSanL-Regu-45" d="M 1171 2112 
L 3712 2112 
L 3712 2638 
L 1171 2638 
L 1171 4146 
L 3808 4146 
L 3808 4672 
L 576 4672 
L 576 0 
L 3923 0 
L 3923 526 
L 1171 526 
L 1171 2112 
z
" transform="scale(0.015625)"/>
      </defs>
      <use xlink:href="#NimbusSanL-Regu-4e" transform="scale(0.996264)"/>
      <use xlink:href="#NimbusSanL-Regu-45" transform="translate(71.929985 0)scale(0.996264)"/>
      <use xlink:href="#NimbusSanL-Regu-54" transform="translate(138.380016 0)scale(0.996264)"/>
     </g>
    </g>
    <g id="line2d_122">
     <g>
      <use xlink:href="#m7d76fbff7d" x="145.476467" y="137.541171" style="fill: #ff9500; stroke: #ff9500"/>
     </g>
    </g>
    <g id="text_15">
     <!-- Badam et al. (2007) -->
     <g transform="translate(158.076467 139.991171)scale(0.07 -0.07)">
      <defs>
       <path id="NimbusSanL-Regu-42" d="M 506 0 
L 2611 0 
C 3053 0 3379 121 3629 388 
C 3859 629 3987 959 3987 1322 
C 3987 1881 3731 2217 3136 2446 
C 3558 2647 3782 2996 3782 3475 
C 3782 3817 3654 4122 3411 4342 
C 3168 4568 2848 4672 2400 4672 
L 506 4672 
L 506 0 
z
M 1101 2638 
L 1101 4146 
L 2253 4146 
C 2586 4146 2771 4100 2931 3977 
C 3098 3847 3187 3652 3187 3391 
C 3187 3138 3098 2937 2931 2806 
C 2771 2683 2586 2638 2253 2638 
L 1101 2638 
z
M 1101 526 
L 1101 2112 
L 2554 2112 
C 2842 2112 3034 2042 3174 1891 
C 3315 1745 3392 1543 3392 1316 
C 3392 1095 3315 893 3174 747 
C 3034 595 2842 526 2554 526 
L 1101 526 
z
" transform="scale(0.015625)"/>
       <path id="NimbusSanL-Regu-61" d="M 3424 333 
C 3366 320 3341 320 3309 320 
C 3123 320 3021 415 3021 581 
L 3021 2545 
C 3021 3137 2586 3456 1760 3456 
C 1274 3456 870 3316 646 3066 
C 493 2893 429 2702 416 2370 
L 954 2370 
C 998 2777 1242 2962 1741 2962 
C 2221 2962 2490 2783 2490 2465 
L 2490 2325 
C 2490 2101 2355 2006 1933 1955 
C 1178 1860 1062 1834 858 1751 
C 467 1592 269 1292 269 859 
C 269 254 691 -128 1370 -128 
C 1792 -128 2131 19 2509 365 
C 2547 25 2714 -128 3059 -128 
C 3168 -128 3251 -116 3424 -70 
L 3424 333 
z
M 2490 1072 
C 2490 893 2438 785 2278 639 
C 2061 441 1798 340 1485 340 
C 1069 340 826 537 826 874 
C 826 1225 1062 1403 1632 1486 
C 2195 1562 2310 1588 2490 1670 
L 2490 1072 
z
" transform="scale(0.015625)"/>
       <path id="NimbusSanL-Regu-64" d="M 3168 4672 
L 2637 4672 
L 2637 2937 
C 2413 3276 2054 3456 1606 3456 
C 736 3456 166 2761 166 1695 
C 166 566 723 -128 1626 -128 
C 2086 -128 2406 45 2694 461 
L 2694 -2 
L 3168 -2 
L 3168 4672 
z
M 1696 2956 
C 2272 2956 2637 2447 2637 1651 
C 2637 881 2266 372 1702 372 
C 1114 372 723 887 723 1664 
C 723 2440 1114 2956 1696 2956 
z
" transform="scale(0.015625)"/>
       <path id="NimbusSanL-Regu-65" d="M 3283 1529 
C 3283 2034 3245 2338 3149 2584 
C 2931 3127 2419 3456 1792 3456 
C 858 3456 256 2742 256 1645 
C 256 547 838 -128 1779 -128 
C 2547 -128 3078 310 3213 1044 
L 2675 1044 
C 2528 598 2227 365 1798 365 
C 1459 365 1171 520 992 805 
C 864 998 819 1193 813 1529 
L 3283 1529 
z
M 826 1984 
C 870 2577 1248 2962 1786 2962 
C 2310 2962 2714 2530 2714 1984 
C 2714 1984 2714 1984 2707 1984 
L 826 1984 
z
" transform="scale(0.015625)"/>
       <path id="NimbusSanL-Regu-74" d="M 1626 3380 
L 1075 3380 
L 1075 4288 
L 544 4288 
L 544 3380 
L 90 3380 
L 90 2944 
L 544 2944 
L 544 404 
C 544 64 774 -128 1190 -128 
C 1318 -128 1446 -116 1626 -83 
L 1626 366 
C 1555 346 1472 340 1370 340 
C 1139 340 1075 404 1075 641 
L 1075 2944 
L 1626 2944 
L 1626 3380 
z
" transform="scale(0.015625)"/>
       <path id="NimbusSanL-Regu-6c" d="M 973 4672 
L 435 4672 
L 435 -2 
L 973 -2 
L 973 4672 
z
" transform="scale(0.015625)"/>
       <path id="NimbusSanL-Regu-2e" d="M 1222 667 
L 557 667 
L 557 0 
L 1222 0 
L 1222 667 
z
" transform="scale(0.015625)"/>
       <path id="NimbusSanL-Regu-28" d="M 1510 4672 
C 870 3830 467 2660 467 1651 
C 467 636 870 -534 1510 -1376 
L 1862 -1376 
C 1299 -457 986 623 986 1651 
C 986 2673 1299 3759 1862 4672 
L 1510 4672 
z
" transform="scale(0.015625)"/>
       <path id="NimbusSanL-Regu-37" d="M 3328 4525 
L 294 4525 
L 294 3968 
L 2746 3968 
C 1664 2418 1222 1466 883 -32 
L 1485 -32 
C 1734 1427 2304 2681 3328 4051 
L 3328 4525 
z
" transform="scale(0.015625)"/>
       <path id="NimbusSanL-Regu-29" d="M 595 -1376 
C 1235 -534 1638 636 1638 1644 
C 1638 2660 1235 3830 595 4672 
L 243 4672 
C 806 3753 1120 2673 1120 1644 
C 1120 623 806 -464 243 -1376 
L 595 -1376 
z
" transform="scale(0.015625)"/>
      </defs>
      <use xlink:href="#NimbusSanL-Regu-42" transform="scale(0.996264)"/>
      <use xlink:href="#NimbusSanL-Regu-61" transform="translate(66.450031 0)scale(0.996264)"/>
      <use xlink:href="#NimbusSanL-Regu-64" transform="translate(121.841708 0)scale(0.996264)"/>
      <use xlink:href="#NimbusSanL-Regu-61" transform="translate(177.233385 0)scale(0.996264)"/>
      <use xlink:href="#NimbusSanL-Regu-6d" transform="translate(232.625062 0)scale(0.996264)"/>
      <use xlink:href="#NimbusSanL-Regu-65" transform="translate(343.308662 0)scale(0.996264)"/>
      <use xlink:href="#NimbusSanL-Regu-74" transform="translate(398.700339 0)scale(0.996264)"/>
      <use xlink:href="#NimbusSanL-Regu-61" transform="translate(454.090678 0)scale(0.996264)"/>
      <use xlink:href="#NimbusSanL-Regu-6c" transform="translate(509.482355 0)scale(0.996264)"/>
      <use xlink:href="#NimbusSanL-Regu-2e" transform="translate(531.599139 0)scale(0.996264)"/>
      <use xlink:href="#NimbusSanL-Regu-28" transform="translate(593.563961 0)scale(0.996264)"/>
      <use xlink:href="#NimbusSanL-Regu-32" transform="translate(626.73919 0)scale(0.996264)"/>
      <use xlink:href="#NimbusSanL-Regu-30" transform="translate(682.130867 0)scale(0.996264)"/>
      <use xlink:href="#NimbusSanL-Regu-30" transform="translate(737.522544 0)scale(0.996264)"/>
      <use xlink:href="#NimbusSanL-Regu-37" transform="translate(792.914221 0)scale(0.996264)"/>
      <use xlink:href="#NimbusSanL-Regu-29" transform="translate(848.305898 0)scale(0.996264)"/>
     </g>
    </g>
   </g>
  </g>
 </g>
 <defs>
  <clipPath id="p175e0cd48a">
   <rect x="27.658283" y="3.6" width="198.421717" height="144.176553"/>
  </clipPath>
 </defs>
</svg>
